<?xml version="1.0" encoding="UTF-8" standalone="no"?>
<!DOCTYPE svg PUBLIC "-//W3C//DTD SVG 1.1//EN" "http://www.w3.org/Graphics/SVG/1.1/DTD/svg11.dtd">
<svg width="100%" height="100%" viewBox="0 0 446 446" version="1.1" xmlns="http://www.w3.org/2000/svg" xmlns:xlink="http://www.w3.org/1999/xlink" xml:space="preserve" xmlns:serif="http://www.serif.com/" style="fill-rule:evenodd;clip-rule:evenodd;stroke-linejoin:round;stroke-miterlimit:2;">
    <g transform="matrix(1,0,0,1,-293.960579,-202)">
        <path d="M562.411,343.634C578.945,354.174 661.189,399.895 664.096,403.831C669.408,411.023 663.913,414.676 640.684,455.601C640.272,456.327 581.756,555.007 575.168,566.299C566.241,581.599 558.104,571.442 528.228,553.965C475.858,523.329 476.475,522.269 456.711,513.06C442.637,506.502 451.031,498.977 461.006,482.209C467.717,470.93 543.203,344.048 545.674,341.685C548.175,339.29 551.923,338.965 552.511,338.914C554.643,338.729 561.669,343.166 562.411,343.634Z" style="fill:rgb(95,76,113);"/>
        <path d="M662.528,266.478C709.261,326.028 663.72,392.947 656.729,389.024C653.79,387.375 624.975,371.207 620.557,367.43C616.845,364.257 629.766,361.19 637.757,335.574C656.601,275.165 597.404,225.957 555.416,235.872C539.664,239.591 597.404,209.269 647.164,250.901C655.591,257.951 655.47,258.021 662.528,266.478Z" style="fill:rgb(82,93,104);"/>
        <path d="M490.263,329.311C494.567,324.881 496.774,325.793 502.541,327.356C534.591,336.044 535.011,335.044 537.273,336.827C538.286,337.626 538.42,338.245 530.238,351.34C524.72,360.172 504.292,394.467 502.053,398.227C455.086,477.08 454.69,476.759 450.861,483.754C450.603,484.225 432.643,514.74 446.039,488.426C451.115,478.454 484.538,337.658 490.263,329.311Z" style="fill:rgb(103,64,121);"/>
        <path d="M467.42,526.324C459.883,526.002 460.017,525.383 452.51,525.078C432.977,524.283 435.773,517.5 435.801,504.5C436.162,340.101 434.591,339.397 437.605,335.582C441.148,331.096 443.011,331.941 469.5,331.86C470.272,331.858 478.621,331.832 479.117,332.717C480.566,335.305 437.131,481.474 438.922,502.457C440.101,516.27 447.983,518.976 449.501,519.497C457.157,522.125 457.301,521.314 464.931,524.093C466.718,524.744 467.265,524.396 467.42,526.324Z" style="fill:rgb(39,51,68);"/>
        <path d="M462.16,534.302C461.96,534.454 443.011,542.437 441.343,543.14C429.609,548.083 430.124,539.489 413.946,513.23C408.28,504.033 360.772,420.749 356.176,412.691C350.435,402.628 342.603,394.261 355.773,386.995C382.31,372.354 383.78,371.08 384.433,373.527C393.613,407.883 391.817,408.277 419.413,506.524C422.781,518.513 425.215,537.851 437.424,535.102C448.337,532.644 448.416,534.138 459.546,533.257C462.206,533.047 461.76,534.023 462.16,534.302Z" style="fill:rgb(50,64,91);"/>
        <path d="M427.783,514.31C420.791,475.744 418.296,476.41 408.844,438.414C389.674,361.347 390.146,361.004 390.999,358.706C392.018,355.959 392.948,353.451 425.482,346.389C428.935,345.639 427.67,348.359 427.597,390.5C427.423,491.702 428.307,500.917 429.222,510.471C429.472,513.074 430.416,514.284 427.783,514.31Z" style="fill:rgb(78,58,94);"/>
        <path d="M535.951,490.412C537.34,483.124 544.09,463.088 526.063,436.794C525.949,436.626 521.303,431.896 525.482,433.002C540.488,436.973 562.718,433.35 577.826,418.924C584.311,412.733 567.92,440.325 590.911,469.167C591.685,470.138 597.766,475.94 594.494,475.461C591.91,475.083 562.477,465.531 538.152,490.063C537.282,490.941 537.174,490.533 535.951,490.412Z" style="fill:rgb(231,231,231);"/>
        <path d="M509.414,289.546C501.944,277.009 489.055,282.746 492.681,278.702C495.873,275.144 508.627,283.461 511.865,260.598C512.982,252.715 513.6,264.803 517.338,271.6C521.478,279.128 542.421,278.89 532.577,280.686C513.816,284.106 516.926,289.315 514.183,299.38C512.633,305.068 513.06,297.709 509.414,289.546Z" style="fill:rgb(33,46,60);"/>
        <path d="M581.424,341.877C609.976,347.66 618.797,346.989 614.357,362.436C613.468,365.525 593.113,350.899 573.601,342.31C560.963,336.746 580.816,341.724 581.424,341.877Z" style="fill:rgb(81,120,167);"/>
        <path d="M519.297,324.662C518.103,322.692 519.781,323.146 522.422,323.119C532.486,323.014 532.405,322.7 542.487,322.247C561.707,321.385 566.157,320.037 566.263,330.485C566.299,334.129 563.843,332.228 521.045,324.997L519.297,324.662Z" style="fill:rgb(81,90,150);"/>
        <path d="M548.595,363.842C543.536,367.616 543.223,364.982 543.195,364.547C543.185,364.395 555.743,349.226 559.285,351.795C560.636,352.775 560.978,353.277 556.408,372.458C556.32,372.828 552.759,375.027 553.735,368.533C554.138,365.846 548.759,363.934 548.595,363.842Z" style="fill:rgb(225,224,227);"/>
        <path d="M568.591,555.589C568.01,556.215 562.067,562.62 560.498,562.556C558.669,562.481 557.756,560.628 557.925,559.554C560.909,540.65 561.983,540.028 563.484,540.537C567.835,542.009 560.46,546.183 565.132,549.929C571.143,554.751 571.353,544.497 574.795,547.055C576.891,548.613 572.054,552.144 568.591,555.589Z" style="fill:rgb(220,218,224);"/>
        <path d="M412.107,376.681C411.323,375.883 411.23,374.177 406.684,375.907C404.269,376.826 405.813,381.664 402.401,380.633C402.007,380.514 402.839,360.392 405.554,359.824C407.074,359.506 407.575,359.825 415.463,376.515C416.062,377.783 414.385,381.055 412.107,376.681Z" style="fill:rgb(226,224,225);"/>
        <path d="M495.398,349.436C501.503,339.11 502.517,336.69 504.589,337.271C506.771,337.884 505.774,358.145 505.455,358.456C502.727,361.11 502.626,353.135 502.113,352.791C497.26,349.537 495.449,354.46 494.325,355.126C489.372,358.06 495.132,349.816 495.398,349.436Z" style="fill:rgb(227,220,228);"/>
        <path d="M374.379,400.625C378.921,405.281 379.5,405.071 379.371,406.471C379.076,409.676 374.542,403.793 372.642,404.803C369.286,406.588 368.694,406.738 369.133,410.54C369.4,412.847 367.102,412.652 366.75,411.394C361.511,392.725 362.917,391.433 364.438,391.842C366.427,392.377 373.766,400.013 374.379,400.625Z" style="fill:rgb(226,225,224);"/>
        <path d="M445.101,355.38C449.671,341.454 449.621,341.274 450.599,340.911C451.95,340.409 453.512,340.36 457.677,357.482C457.744,357.761 456.652,361.786 454.18,356.668C453.411,355.077 448.87,354.878 447.657,356.607C447.526,356.793 443.211,361.837 445.101,355.38Z" style="fill:rgb(226,226,229);"/>
        <path d="M406.585,394.417C401.472,388.159 409.114,385.16 410.341,386.696C411.498,388.143 412.061,386.533 413.656,385.589C415.575,384.453 417.757,385.384 418.306,388.538C418.795,391.35 414.411,399.093 414.291,399.181C413.48,399.776 407.072,394.86 406.585,394.417Z" style="fill:rgb(226,221,224);"/>
        <path d="M500.798,363.35C501.804,365.624 504.19,367.909 497.147,373.023C496.596,373.423 493.581,375.611 490.729,367.426C489.746,364.603 497.562,358.472 499.394,360.581C499.557,360.769 499.498,360.786 500.798,363.35Z" style="fill:rgb(225,220,223);"/>
        <path d="M378.499,423.498C378.499,423.498 375.769,426.776 374.749,426.081C373.594,425.293 373.587,422.399 373.981,421.797C374.584,420.876 376.165,420.02 374.909,418.256C372.833,415.342 377.096,412.825 379.273,415.663C382.101,419.35 385.156,414.884 385.156,417.565C385.156,420.246 384.893,420.473 381.585,420.981C380.657,421.123 383.383,426.236 383.375,426.493C383.367,426.789 382.126,428.864 380.187,424.607C379.578,423.271 378.621,423.579 378.499,423.498Z" style="fill:rgb(226,220,220);"/>
        <path d="M451.589,370.061C450.331,370.454 450.293,370.324 449.467,371.322C447.029,372.317 446.96,373.467 444.719,372.079C440.259,369.317 447.181,366.957 447.598,366.79C448.667,366.364 450.375,358.625 453,363.763C454.898,367.477 456.877,365.731 457.889,368.322C460.098,373.981 453.966,372.277 453.518,372.153C452.693,370.91 452.684,371.047 451.589,370.061Z" style="fill:rgb(221,221,225);"/>
        <path d="M550.852,361.575C551.12,361.186 560.495,347.591 556.354,359.452C556.1,360.179 555.386,363.842 554.717,363.934C553.055,364.163 553.254,363.518 550.852,361.575Z" style="fill:rgb(40,53,96);"/>
        <path d="M406.7,364.917C410.41,369.183 409.395,372.296 408.548,372.606C405.338,373.78 404.92,369.024 406.7,364.917Z" style="fill:rgb(48,49,78);"/>
        <path d="M450.288,372.45C450.722,372.621 451.251,372.197 451.685,372.368C452.536,372.703 453.959,375.359 454.113,375.647C454.955,377.219 453.538,376.572 450.494,376.953C448.207,377.24 448.42,375.87 450.288,372.45Z" style="fill:rgb(224,224,225);"/>
        <path d="M369.798,400.211C370.018,400.825 370.894,401.044 371.114,401.657C371.404,402.47 368.42,404.546 367.627,402.435C367.54,402.202 364.122,392.769 369.798,400.211Z" style="fill:rgb(30,44,59);"/>
        <path d="M449.67,350.546C449.762,350.202 451.07,345.318 452.054,346.796C452.643,347.68 452.787,351.117 452.803,351.498C452.827,352.084 449.335,356.015 449.67,350.546Z" style="fill:rgb(31,49,66);"/>
        <path d="M564.624,555.581C564.463,555.799 559.492,562.526 561.36,556.471C561.473,556.104 563.454,549.68 564.934,553.26C564.934,553.26 564.649,555.396 564.624,555.581Z" style="fill:rgb(130,59,89);"/>
        <path d="M501.725,343.713C502.856,344.187 502.879,344.063 503.229,344.526C502.998,347.222 503.106,349.883 501.518,349.825C498.033,349.697 500.754,345.637 501.725,343.713Z" style="fill:rgb(69,61,115);"/>
        <path d="M501.725,343.713C502.165,343.676 502.128,342.728 502.568,342.69C502.568,342.69 503.176,344.379 503.229,344.526C502.879,344.063 502.856,344.187 501.725,343.713Z" style="fill:rgb(133,128,162);"/>
        <path d="M451.589,370.061C452.684,371.047 452.693,370.91 453.518,372.153L451.589,370.061Z" style="fill:rgb(177,180,188);"/>
        <path d="M519.297,324.662L521.045,324.997C520.111,325.019 520.189,324.999 519.297,324.662Z" style="fill:rgb(201,200,212);"/>
    </g>
</svg>
